<?xml version="1.0" standalone="no"?>
<svg
        width="100%"
        height="100%"
        viewBox="0 0 600 600"
        xmlns="http://www.w3.org/2000/svg"
>
    <g transform="translate(250,350)">
        <path d="M96.9,-126.6C130.7,-129,166.8,-110.8,194.2,-80.1C221.7,-49.3,240.5,-6,230.6,30.2C220.8,66.3,182.2,95.4,142.8,102.1C103.3,108.9,63.1,93.3,31.6,98.3C0.1,103.3,-22.6,128.9,-31.2,120.1C-39.8,111.3,-34.3,68.1,-47.5,45.3C-60.7,22.6,-92.7,20.2,-125.8,-1.2C-158.9,-22.7,-193.2,-63.3,-187.6,-89.9C-182.1,-116.6,-136.7,-129.4,-98.8,-125.1C-60.9,-120.8,-30.5,-99.4,0.5,-100.2C31.5,-101.1,63.1,-124.1,96.9,-126.6Z"
              fill="#eb144c"/>
    </g>
</svg>
    