<svg height="64" width="64" xmlns="http://www.w3.org/2000/svg"><path d="m33.073 17.436c-1.287 2.575-.644 4.72 1.073 4.72s4.292-1.93 5.58-4.506.644-4.72-1.073-4.72c-1.717-.215-4.292 1.93-5.58 4.506zm14.807-9.226c-1.073 3.22-2.8 6.652-4.72 9.227-3.862 5.58-9.227 9.012-12.016 7.94-3.004-1.287-2.146-6.867 1.502-12.446.858-1.287 1.717-2.36 2.8-3.433-1.073.215-2.36.43-3.648.644-12.672 15.663-18.038 35.833-17.178 53.858-7.51-3.004-12.875-10.3-13.52-19.527-1.072-16.308 11.803-33.045 28.97-37.337 6.437-1.502 12.66-1.073 17.8 1.073z" fill="#c40022"/><path d="m43.16 52.198-3.862 2.36c-.215-3.862-1.073-7.725-2.575-10.944-3.862-8.37-10.73-9.012-15.235-1.502-2.8 4.72-4.077 11.373-3.648 17.8 4.72 1.502 10.3 1.717 16.094.215 16.95-4.281 30.039-21.017 28.966-37.327-.644-14.376-12.016-23.603-26.18-22.745-1.287 1.502-2.575 2.8-3.862 4.292 8.37-1.073 15.02.644 19.312 4.077-15.02 21.458-13.09 33.474-9.012 43.774 0-.215 0-.215 0 0z"/></svg>